<?xml version="1.0" encoding="UTF-8"?>
<svg width="26px" height="26px" viewBox="0 0 26 26" version="1.1" xmlns="http://www.w3.org/2000/svg" xmlns:xlink="http://www.w3.org/1999/xlink">
    <!-- Generator: Sketch 47.1 (45422) - http://www.bohemiancoding.com/sketch -->
    <title>content-save</title>
    <desc>Created with Sketch.</desc>
    <defs></defs>
    <g id="Page-4-Shutterstock-Editor" stroke="none" stroke-width="1" fill="none" fill-rule="evenodd">
        <g id="Website-" transform="translate(-23.000000, -226.000000)" stroke="#5B6169" fill-rule="nonzero" fill="#F2F2F2">
            <g id="content-save" transform="translate(24.000000, 227.000000)">
                <path d="M16,8 L2.66666667,8 L2.66666667,2.66666667 L16,2.66666667 L16,8 Z M12,21.3333333 C9.790861,21.3333333 8,19.5424723 8,17.3333333 C8,15.1241943 9.790861,13.3333333 12,13.3333333 C14.209139,13.3333333 16,15.1241943 16,17.3333333 C16,19.5424723 14.209139,21.3333333 12,21.3333333 L12,21.3333333 Z M18.6666667,0 L2.66666667,0 C1.18666667,0 0,1.2 0,2.66666667 L0,21.3333333 C0,22.8060927 1.19390733,24 2.66666667,24 L21.3333333,24 C22.8060927,24 24,22.8060927 24,21.3333333 L24,5.33333333 L18.6666667,0 Z" id="Shape"></path>
            </g>
        </g>
    </g>
</svg>